<svg xmlns="http://www.w3.org/2000/svg" id="Layer_1" enable-background="new 0 0 64 64" viewBox="0 0 64 64"><path fill="#2a2f63" d="M63.9,34.1c-0.3-1.8-1.6-1.8-2.4-1.8c-0.1,0-0.2,0-0.3,0c-1.2-0.1-2.4-0.1-3.5-0.1l-1.4,0c-0.5,0-1,0-1.5,0
		c0-1.6-0.2-3.2-0.5-4.7l0.1,0c1.1-0.3,2.3-0.6,3.5-0.8c0.3-0.1,0.7-0.2,1-0.2c0.4-0.1,0.8-0.2,1.1-0.3l0.3-0.1
		c0.2,0,0.5-0.1,0.7-0.1l0.2,0c0.4-0.1,1.1-0.3,1.5-0.9c0.3-0.5,0.3-1.1,0.2-1.4l0-0.1c0-0.8-0.4-1.7-0.9-2.5c-0.5-0.6-1-1-1.6-1
		c-0.5,0-0.9,0.2-1.2,0.3c-0.1,0-0.2,0.1-0.3,0.1c-1.1,0.4-2.2,0.9-3.2,1.4l-1.3,0.6c-0.5,0.2-0.9,0.4-1.4,0.6
		c-0.6-1.4-1.4-2.8-2.4-4.1l0.2-0.2c0.9-0.7,1.8-1.4,2.7-2c0.3-0.2,0.5-0.4,0.8-0.6c0.3-0.2,0.6-0.5,0.9-0.7l0.2-0.2
		c0.2-0.1,0.4-0.3,0.6-0.4l0.1-0.1c0.3-0.3,0.9-0.7,1-1.4c0.1-0.6-0.2-1.1-0.4-1.4l-0.1-0.1c-0.4-0.8-1-1.4-1.9-1.9
		c-0.4-0.3-0.8-0.4-1.2-0.4c-0.8,0-1.3,0.5-1.7,1c-0.1,0.1-0.1,0.2-0.2,0.2c-0.8,0.8-1.6,1.7-2.4,2.6l-1.3,1.4
		c-0.2,0.3-0.5,0.5-0.7,0.8c-1.2-1.1-2.4-2-3.8-2.8l0.1-0.2c0.5-1,1.1-2,1.7-3c0.2-0.3,0.3-0.6,0.5-0.9c0.2-0.3,0.4-0.7,0.6-1
		l0.1-0.3c0.1-0.2,0.3-0.4,0.4-0.6l0.1-0.1c0.2-0.4,0.5-1,0.3-1.7c-0.2-0.6-0.6-0.9-0.9-1.1l-0.1-0.1c-0.7-0.5-1.5-0.9-2.5-1
		c-0.2,0-0.3,0-0.4,0c-1.4,0-1.9,1.4-2.1,2.1c0,0.1,0-0.1,0,0c-0.4,1.1-0.8,2.2-1.2,3.4l-0.4,1.3c-0.2,0.5-0.3,1-0.5,1.4
		c-1.5-0.5-3.1-0.8-4.6-1c0.1-1.2,0.2-2.4,0.3-3.6c0-0.4,0.1-0.7,0.1-1c0-0.4,0-0.8,0.1-1.2l0-0.3C35,3.3,35,3.1,35,2.8l0-0.2
		c0-0.4,0.1-1.1-0.4-1.7c-0.4-0.4-0.9-0.6-1.3-0.6l-0.1,0c-0.8-0.2-1.8-0.2-2.7,0.1c-1.7,0.5-1.6,1.8-1.5,2.5c0,0.1,0,0.2,0,0.3
		c0.1,1.1,0.2,2.3,0.3,3.5l0.1,1.7c0,0.4,0.1,0.9,0.1,1.3c-1.6,0.2-3.1,0.5-4.6,1l-0.1-0.2c-0.4-1.1-0.8-2.1-1.1-3.2
		c-0.1-0.3-0.2-0.6-0.4-1c-0.1-0.4-0.3-0.7-0.4-1.1L23,4.8c-0.1-0.2-0.1-0.5-0.2-0.7L22.7,4c-0.1-0.4-0.4-1.1-1.1-1.4
		c-0.4-0.2-0.9-0.2-1.4-0.1l-0.1,0c-1.1,0.2-1.9,0.7-2.4,1.2c-1.4,1.2-0.7,2.3-0.3,2.9c0.1,0.1,0.1,0.2,0.2,0.3c0.5,1,1.1,2,1.7,3
		l0.8,1.5c0.2,0.4,0.4,0.7,0.6,1.1c-1.4,0.8-2.7,1.7-3.8,2.8l-0.2-0.2c-0.8-0.8-1.5-1.6-2.3-2.4c-0.2-0.3-0.5-0.5-0.7-0.7
		c-0.3-0.3-0.6-0.6-0.8-0.9l-0.2-0.2c-0.1-0.2-0.3-0.4-0.4-0.5L12,10.2c-0.3-0.3-0.8-0.8-1.5-0.8c-0.6,0-1,0.3-1.3,0.5L9,10
		c-0.7,0.5-1.3,1.2-1.7,2.1c-0.8,1.6,0.3,2.4,0.9,2.8c0.1,0.1,0.2,0.1,0.3,0.2c0.9,0.7,1.9,1.4,2.8,2.1l1.2,0.9
		c0.4,0.3,0.7,0.5,1.1,0.8c-0.9,1.3-1.7,2.7-2.4,4.1L11,22.9c-1.1-0.4-2.1-0.9-3.2-1.4c-0.3-0.1-0.6-0.3-1-0.4
		c-0.4-0.1-0.7-0.3-1.1-0.5l-0.3-0.1c-0.2-0.1-0.4-0.2-0.6-0.3l-0.1-0.1c-0.4-0.2-1.1-0.4-1.7-0.1c-0.6,0.2-0.8,0.7-1,1l-0.1,0.1
		c-0.5,0.7-0.7,1.6-0.8,2.6c0,1.8,1.2,2.1,2,2.2c0.1,0,0.2,0,0.3,0.1c1.1,0.3,2.3,0.5,3.4,0.8l1.4,0.3c0.5,0.1,1,0.2,1.5,0.3
		c-0.3,1.5-0.5,3.1-0.5,4.7l-0.3,0c-1.1,0-2.3,0.1-3.4,0.1c-0.3,0-0.7,0-1,0c-0.3,0-0.7,0-1,0l-0.5,0c-0.2,0-0.4,0-0.7,0l-0.2,0
		c-0.4,0-1.1,0-1.6,0.6c-0.4,0.4-0.5,1-0.5,1.3l0,0.1c-0.1,0.8,0,1.8,0.4,2.7c0.5,1.1,1.3,1.3,1.8,1.3c0.3,0,0.6-0.1,0.9-0.1
		c0.1,0,0.2,0,0.3-0.1c1.2-0.2,2.3-0.4,3.4-0.7l1.8-0.4c0.4-0.1,0.7-0.1,1.1-0.2c0.3,1.6,0.8,3.1,1.5,4.5l-0.1,0.1
		c-1.1,0.5-2.1,1-3.2,1.5c-0.3,0.1-0.6,0.3-1,0.5c-0.4,0.2-0.7,0.3-1,0.5l-0.3,0.1c-0.2,0.1-0.4,0.2-0.6,0.3l-0.1,0.1
		c-0.4,0.2-1,0.5-1.3,1.2c-0.2,0.6,0,1.1,0.1,1.4l0,0.1c0.3,1,0.9,1.8,1.4,2.3c0.5,0.5,0.9,0.7,1.4,0.7c0.6,0,1.1-0.3,1.5-0.6
		c0.1-0.1,0.2-0.1,0.3-0.2c1-0.6,1.9-1.3,2.8-2l1.2-0.9c0.4-0.3,0.8-0.6,1.2-0.9c0.9,1.3,2,2.5,3.2,3.5l-0.1,0.2
		c-0.7,0.9-1.5,1.7-2.2,2.6c-0.2,0.3-0.5,0.5-0.7,0.8c-0.3,0.3-0.5,0.6-0.8,0.9l-0.2,0.2c-0.2,0.2-0.3,0.3-0.5,0.5l-0.1,0.1
		c-0.3,0.3-0.7,0.9-0.7,1.6c0.1,0.6,0.4,1,0.6,1.3l0.1,0.1c0.5,0.6,1.3,1.2,2.2,1.5c0.3,0.1,0.6,0.2,0.9,0.2c1.1,0,1.5-0.8,1.9-1.3
		c0.1-0.1,0.1-0.2,0.2-0.3c0.6-1,1.2-2,1.8-3l0.7-1.2c0.3-0.4,0.5-0.9,0.8-1.3c1.4,0.8,2.8,1.4,4.3,1.9l-0.1,0.2
		c-0.3,1.1-0.7,2.2-1,3.3c-0.1,0.3-0.2,0.7-0.3,1c-0.1,0.4-0.2,0.8-0.3,1.1l-0.1,0.3c-0.1,0.2-0.2,0.4-0.2,0.7l0,0.2
		c-0.1,0.4-0.3,1.1,0,1.7c0.3,0.5,0.8,0.7,1.1,0.9l0.1,0.1c0.8,0.4,1.7,0.5,2.7,0.5c1.8-0.1,1.9-1.5,2-2.2c0-0.1,0-0.2,0-0.3
		c0.2-1.2,0.3-2.4,0.5-3.6l0.1-1.3c0.1-0.5,0.1-1,0.2-1.5c1.5,0.2,3.2,0.2,4.7,0l0,0.3c0.1,1.1,0.3,2.2,0.4,3.3c0,0.4,0.1,0.7,0.1,1
		c0.1,0.4,0.1,0.8,0.1,1.1l0,0.3c0,0.2,0,0.5,0.1,0.7l0,0.2c0.1,0.4,0.1,1.1,0.7,1.5c0.5,0.4,1,0.4,1.4,0.4h0.1c0.1,0,0.1,0,0.2,0
		c0.8,0,1.6-0.2,2.4-0.7c1.6-0.8,1.2-2.1,0.9-2.8c0-0.1-0.1-0.2-0.1-0.3c-0.3-1.1-0.7-2.3-1-3.4l-0.4-1.3c-0.1-0.5-0.3-1-0.4-1.4
		c1.5-0.5,3-1.1,4.3-1.9l0.1,0.2c0.6,1,1.2,2,1.8,3c0.2,0.3,0.4,0.6,0.5,0.9c0.2,0.3,0.4,0.6,0.6,1l0.1,0.3c0.1,0.2,0.2,0.4,0.3,0.6
		L47,58c0.2,0.4,0.6,1,1.3,1.1c0.5,0.1,1.1-0.1,1.4-0.2l0.1,0c0.8-0.3,1.5-0.9,2.1-1.7c1.1-1.4,0.2-2.4-0.3-2.9
		c-0.1-0.1-0.1-0.2-0.2-0.3c-0.8-0.9-1.6-1.8-2.4-2.7l-1.1-1.2l-0.8-0.9c1.2-1.1,2.2-2.2,3.2-3.5c1,0.7,2,1.4,3,2.1
		c0.3,0.2,0.6,0.4,0.9,0.6c0.3,0.2,0.6,0.4,0.9,0.6l0.2,0.2c0.2,0.2,0.4,0.3,0.6,0.4l0.1,0.1c0.4,0.3,0.9,0.6,1.7,0.5
		c0.6-0.1,1-0.5,1.2-0.8l0.1-0.1c0.8-0.8,1.1-1.7,1.3-2.4c0.4-1.7-0.8-2.3-1.5-2.6c-0.1,0-0.2-0.1-0.3-0.1c-1-0.5-2.1-1-3.2-1.5
		l-1.5-0.7c-0.4-0.2-0.8-0.3-1.1-0.5c0.6-1.4,1.1-2.9,1.5-4.5l0.3,0.1c1.1,0.2,2.2,0.4,3.3,0.6c0.3,0.1,0.7,0.1,1,0.2
		c0.4,0.1,0.8,0.1,1.2,0.2l0.3,0.1c0.2,0.1,0.4,0.1,0.7,0.2l0.2,0c0.2,0,0.4,0.1,0.7,0.1c0.4,0,0.7-0.1,1-0.3
		c0.5-0.3,0.7-0.8,0.8-1.2l0.1-0.1C64,36,64.1,35.1,63.9,34.1z M61.9,36.1l-0.1,0.2c0,0.1-0.1,0.2-0.1,0.2c-0.1,0-0.2,0-0.2,0
		l-0.2,0c-0.2,0-0.3-0.1-0.5-0.1c-0.1,0-0.2-0.1-0.4-0.1c-0.4-0.1-0.8-0.2-1.3-0.2c-0.3-0.1-0.6-0.1-0.9-0.2
		c-1.1-0.2-2.2-0.4-3.4-0.7L54.1,35c-0.1,0-0.3,0-0.4-0.1c-0.3-0.1-0.5,0-0.8,0.1c-0.2,0.1-0.4,0.4-0.4,0.6c-0.3,2-1,4-1.9,5.8
		c-0.1,0.2-0.1,0.5,0,0.8c0.1,0.2,0.3,0.4,0.5,0.6c0.7,0.3,1.3,0.6,2,0.9l1.6,0.7c1,0.5,2.1,1,3.1,1.5c0.1,0.1,0.2,0.1,0.4,0.2
		c0.1,0.1,0.3,0.1,0.4,0.2c0,0,0,0.1,0,0.2c-0.1,0.6-0.4,1.1-0.8,1.5l-0.1,0.1c-0.1,0-0.1,0.1-0.2,0.2c-0.1,0-0.1-0.1-0.2-0.1
		L57.1,48c-0.1-0.1-0.3-0.2-0.4-0.3l-0.3-0.2c-0.3-0.3-0.7-0.5-1-0.7c-0.3-0.2-0.5-0.4-0.8-0.6c-1-0.7-2-1.5-3.1-2.2l-0.7-0.5
		c-0.2-0.2-0.5-0.2-0.7-0.2c-0.3,0-0.5,0.2-0.6,0.4c-1.1,1.7-2.5,3.2-4.1,4.6c-0.2,0.2-0.3,0.4-0.3,0.7c0,0.3,0.1,0.5,0.2,0.7
		c0.5,0.6,1,1.1,1.5,1.7l1.1,1.2c0.8,0.9,1.6,1.8,2.3,2.7c0.1,0.1,0.2,0.2,0.3,0.3c0.1,0.1,0.2,0.2,0.3,0.3c0,0,0,0.1-0.1,0.1
		c-0.3,0.3-0.7,0.8-1.3,1L49,57.2c-0.1,0-0.2,0.1-0.2,0.1c0-0.1-0.1-0.1-0.1-0.2l-0.1-0.2c-0.1-0.2-0.2-0.3-0.3-0.5l-0.2-0.3
		c-0.2-0.4-0.4-0.7-0.6-1.1c-0.2-0.3-0.4-0.6-0.5-0.8c-0.6-1-1.2-2-1.8-3l-0.6-1c-0.1-0.2-0.4-0.4-0.6-0.5c-0.3-0.1-0.5,0-0.8,0.1
		c-1.7,1.1-3.6,1.9-5.6,2.5c-0.3,0.1-0.5,0.2-0.6,0.5c-0.1,0.2-0.1,0.5-0.1,0.7c0.2,0.8,0.5,1.6,0.7,2.4l0.4,1.3
		c0.3,1.1,0.7,2.2,1,3.3c0,0.1,0.1,0.3,0.1,0.4c0.1,0.1,0.1,0.3,0.1,0.4c0,0-0.1,0-0.1,0.1c-0.5,0.3-1,0.4-1.5,0.4l-0.3,0
		c0,0-0.1,0-0.2,0h0c0-0.1,0-0.2,0-0.2l0-0.2c0-0.2,0-0.3,0-0.5c0-0.1,0-0.2,0-0.4c0-0.4-0.1-0.8-0.2-1.3c0-0.3-0.1-0.6-0.1-1
		c-0.1-1.1-0.3-2.3-0.4-3.4l-0.1-0.8c0-0.1,0-0.3,0-0.4c0-0.3-0.2-0.5-0.4-0.7c-0.2-0.2-0.5-0.2-0.7-0.2c-2,0.3-4.2,0.3-6.1,0
		c-0.5-0.1-1,0.3-1.1,0.8c-0.1,0.8-0.2,1.6-0.3,2.5l-0.1,1.3c-0.1,1.2-0.3,2.4-0.4,3.5c0,0.1,0,0.3-0.1,0.4c0,0.1,0,0.3-0.1,0.4
		c0,0-0.1,0-0.2,0c-0.6,0-1.2,0-1.6-0.3l-0.2-0.1c-0.1,0-0.2-0.1-0.2-0.1c0-0.1,0-0.2,0.1-0.2l0.1-0.2c0-0.2,0.1-0.3,0.2-0.5
		l0.1-0.3c0.1-0.4,0.3-0.8,0.4-1.2c0.1-0.3,0.2-0.6,0.3-0.9c0.4-1.1,0.7-2.2,1-3.4L27,54c0-0.1,0.1-0.3,0.1-0.4
		c0.1-0.3,0-0.5-0.1-0.8c-0.1-0.2-0.3-0.4-0.6-0.5c-2-0.6-3.8-1.4-5.6-2.5c-0.2-0.1-0.5-0.2-0.7-0.1c-0.3,0.1-0.5,0.2-0.6,0.4
		c-0.4,0.7-0.9,1.4-1.3,2.1l-0.7,1.3c-0.6,1-1.2,2-1.8,2.9c-0.1,0.1-0.1,0.2-0.2,0.3c-0.1,0.1-0.2,0.3-0.2,0.4c0,0-0.1,0-0.1,0
		c-0.4-0.1-1-0.4-1.4-0.9l-0.1-0.1c0-0.1-0.1-0.1-0.1-0.2c0-0.1,0.1-0.1,0.2-0.2l0.1-0.2c0.1-0.1,0.2-0.3,0.4-0.4
		c0.1-0.1,0.2-0.2,0.2-0.3c0.3-0.3,0.6-0.6,0.8-1c0.2-0.2,0.4-0.5,0.6-0.7c0.8-0.9,1.5-1.8,2.3-2.6l0.8-0.9c0.2-0.2,0.3-0.5,0.2-0.7
		c0-0.3-0.1-0.5-0.4-0.7c-1.6-1.3-3-2.8-4.1-4.5c-0.1-0.2-0.4-0.4-0.6-0.4c-0.3,0-0.5,0-0.7,0.1c-0.7,0.5-1.4,1-2,1.4L10,45.9
		c-0.9,0.6-1.8,1.3-2.8,1.9C7.1,47.9,7,47.9,6.9,48c-0.1,0.1-0.3,0.2-0.4,0.2c0,0-0.1-0.1-0.1-0.1c-0.5-0.4-0.8-0.9-0.9-1.4
		l-0.1-0.2c0-0.1,0-0.1-0.1-0.2c0.1,0,0.2-0.1,0.2-0.1l0.2-0.1C6,46.1,6.2,46,6.3,46l0.3-0.1c0.4-0.2,0.8-0.4,1.1-0.5
		c0.3-0.2,0.6-0.3,0.9-0.4c1.1-0.5,2.2-1,3.2-1.5l1-0.5c0.2-0.1,0.4-0.3,0.5-0.6c0.1-0.3,0.1-0.5,0-0.8c-0.9-1.8-1.5-3.8-1.9-5.8
		c0-0.3-0.2-0.5-0.4-0.6c-0.2-0.1-0.5-0.2-0.7-0.2c-0.7,0.1-1.4,0.3-2.1,0.4l-1.8,0.4c-1.1,0.2-2.2,0.4-3.4,0.6
		c-0.1,0-0.3,0-0.4,0.1c-0.2,0-0.3,0.1-0.4,0.1c0,0-0.1-0.1-0.1-0.1C2,36,1.9,35.4,2,34.8l0-0.2c0-0.1,0-0.2,0-0.2
		c0.1,0,0.2,0,0.2,0l0.4,0c0.1,0,0.2,0,0.4,0c0.1,0,0.2,0,0.4,0h0.2c0.4,0,0.7,0,1.1,0c0.3,0,0.6,0,1,0c1.1,0,2.3,0,3.4-0.1l1.2,0
		c0.3,0,0.5-0.1,0.7-0.3c0.2-0.2,0.3-0.4,0.3-0.7c0-0.3,0-0.6,0-0.9c0-1.8,0.2-3.5,0.7-5.2c0.1-0.3,0-0.5-0.1-0.7
		c-0.1-0.2-0.3-0.4-0.6-0.4c-0.8-0.2-1.6-0.4-2.4-0.6L7.3,25c-1.1-0.3-2.2-0.5-3.4-0.8c-0.1,0-0.3-0.1-0.4-0.1
		c-0.1,0-0.3-0.1-0.4-0.1c0,0,0-0.1,0-0.2c0-0.4,0.1-1.1,0.4-1.6l0.1-0.2c0-0.1,0.1-0.1,0.1-0.2C3.8,22,3.9,22,4,22.1l0.2,0.1
		c0.2,0.1,0.3,0.1,0.5,0.2c0.1,0,0.2,0.1,0.3,0.1c0.4,0.2,0.8,0.3,1.2,0.5c0.3,0.1,0.6,0.2,0.9,0.4c1.1,0.5,2.1,0.9,3.2,1.4l1.1,0.4
		c0.2,0.1,0.5,0.1,0.8,0c0.2-0.1,0.4-0.3,0.5-0.5c0.8-1.9,1.8-3.7,3.1-5.3c0.2-0.2,0.2-0.5,0.2-0.7c0-0.3-0.2-0.5-0.4-0.6
		c-0.6-0.5-1.3-1-1.9-1.4l-1.2-0.9c-0.9-0.7-1.9-1.4-2.8-2.1c-0.1-0.1-0.2-0.2-0.3-0.2C9.2,13.2,9.1,13.1,9,13C9,13,9,13,9,12.9
		c0.2-0.4,0.5-0.9,1-1.3l0.2-0.1c0.1,0,0.1-0.1,0.2-0.1c0.1,0,0.1,0.1,0.2,0.2l0.2,0.2c0.1,0.1,0.2,0.3,0.3,0.4
		c0.1,0.1,0.1,0.2,0.2,0.3c0.3,0.3,0.6,0.6,0.9,1c0.2,0.2,0.4,0.4,0.7,0.7c0.8,0.8,1.5,1.6,2.3,2.5l0.6,0.6c0.1,0.1,0.2,0.2,0.3,0.3
		c0.2,0.2,0.4,0.3,0.7,0.3c0.3,0,0.5-0.1,0.7-0.3c1.5-1.4,3.1-2.6,4.9-3.6c0.2-0.1,0.4-0.3,0.5-0.6c0.1-0.3,0.1-0.5-0.1-0.8
		c-0.4-0.7-0.7-1.3-1.1-2L20.8,9c-0.6-1-1.1-2-1.6-3c-0.1-0.1-0.1-0.2-0.2-0.4c-0.1-0.1-0.2-0.3-0.2-0.4c0,0,0.1-0.1,0.1-0.1
		c0.3-0.3,0.9-0.6,1.5-0.7l0.2,0c0.1,0,0.2,0,0.2-0.1c0,0.1,0.1,0.2,0.1,0.2L21,4.8C21,5,21.1,5.2,21.1,5.3l0.1,0.3
		c0.1,0.4,0.3,0.8,0.4,1.2c0.1,0.3,0.2,0.6,0.3,0.9c0.4,1.1,0.7,2.2,1.1,3.3l0.4,1.1c0.1,0.3,0.3,0.5,0.5,0.6c0.2,0.1,0.5,0.1,0.8,0
		c1.9-0.7,3.9-1.1,6-1.3c0.3,0,0.5-0.1,0.7-0.3c0.2-0.2,0.3-0.5,0.2-0.7c0-0.8-0.1-1.5-0.2-2.3l-0.2-1.7C31.1,5.4,31,4.2,31,3.1
		c0-0.1,0-0.3,0-0.4c0-0.1,0-0.3,0-0.4c0,0,0.1,0,0.2,0c0.6-0.2,1.2-0.2,1.6-0.1l0.2,0c0.1,0,0.2,0,0.2,0c0,0.1,0,0.2,0,0.2l0,0.2
		c0,0.2,0,0.3-0.1,0.5l0,0.4c-0.1,0.4-0.1,0.8-0.1,1.3c0,0.3,0,0.6-0.1,1c-0.1,1.3-0.2,2.5-0.3,3.8l-0.1,0.8c0,0.3,0,0.5,0.2,0.7
		c0.2,0.2,0.4,0.3,0.7,0.3c2,0.1,4.1,0.5,6,1.3c0.3,0.1,0.5,0.1,0.8,0c0.2-0.1,0.4-0.3,0.5-0.6c0.3-0.8,0.6-1.6,0.8-2.4l0.4-1.3
		c0.4-1.1,0.8-2.2,1.1-3.3C43,5.1,43,5,43,4.8c0.1-0.1,0.1-0.3,0.1-0.4c0,0,0.1,0,0.2,0c0.4,0.1,1.1,0.2,1.5,0.6L45,5.2
		c0.1,0,0.1,0.1,0.2,0.1c0,0.1-0.1,0.1-0.1,0.2L45,5.7c-0.1,0.2-0.2,0.3-0.3,0.4l-0.2,0.3c-0.2,0.4-0.4,0.7-0.6,1.1
		c-0.1,0.3-0.3,0.6-0.5,0.9c-0.6,1-1.1,2-1.7,3l-0.6,1c-0.1,0.2-0.2,0.5-0.1,0.8c0.1,0.3,0.3,0.5,0.5,0.6c1.8,0.9,3.5,2.2,5,3.6
		c0.2,0.2,0.4,0.3,0.7,0.3c0.3,0,0.5-0.1,0.7-0.3c0.5-0.5,0.9-1,1.4-1.5l1.3-1.4c0.8-0.9,1.6-1.7,2.4-2.5c0.1-0.1,0.2-0.2,0.3-0.3
		c0.1-0.1,0.2-0.3,0.3-0.3c0,0,0.1,0,0.1,0.1c0.4,0.2,0.9,0.6,1.2,1.2l0.1,0.2c0,0.1,0.1,0.1,0.1,0.2c-0.1,0-0.1,0.1-0.2,0.2
		l-0.2,0.1c-0.1,0.1-0.3,0.2-0.4,0.3L54,13.8c-0.3,0.3-0.7,0.5-1,0.8c-0.3,0.2-0.5,0.4-0.8,0.6c-0.9,0.7-1.8,1.4-2.7,2.1l-1,0.7
		c-0.2,0.2-0.3,0.4-0.4,0.7c0,0.3,0,0.5,0.2,0.7c1.3,1.6,2.3,3.4,3.1,5.3c0.1,0.2,0.3,0.4,0.5,0.5c0.2,0.1,0.5,0.1,0.8,0
		c0.8-0.3,1.5-0.6,2.3-1l1.3-0.6c1.1-0.5,2.1-0.9,3.2-1.3c0.1-0.1,0.3-0.1,0.4-0.2c0.1-0.1,0.3-0.1,0.4-0.2c0,0,0.1,0.1,0.1,0.1
		c0.3,0.4,0.6,0.9,0.6,1.5l0,0.2c0,0.1,0,0.2,0,0.2c-0.1,0-0.2,0.1-0.3,0.1l-0.2,0c-0.2,0-0.4,0.1-0.5,0.1l-0.3,0.1
		c-0.4,0.1-0.8,0.2-1.3,0.3c-0.3,0.1-0.6,0.2-0.9,0.2c-1.2,0.3-2.3,0.5-3.5,0.8l-0.6,0.1c-0.1,0-0.2,0.1-0.4,0.1
		c-0.3,0.1-0.5,0.2-0.6,0.4c-0.1,0.2-0.2,0.5-0.1,0.8c0.4,1.7,0.7,3.4,0.7,5.2c0,0.3,0,0.6,0,0.9c0,0.3,0.1,0.5,0.3,0.7
		c0.2,0.2,0.4,0.3,0.7,0.3c0.8,0,1.7,0,2.5,0.1l1.4,0c1.2,0,2.3,0,3.5,0.1c0.3,0,0.6,0,0.8,0c0,0,0,0.1,0,0.2
		C62.1,34.9,62.1,35.6,61.9,36.1z"/><path fill="#52bf9f" d="M62,34.5c0-0.1,0-0.1,0-0.2c-0.2,0-0.6,0-0.8,0c-1.2-0.1-2.3-0.1-3.5-0.1l-1.4,0c-0.8,0-1.7,0-2.5-0.1
		c-0.3,0-0.5-0.1-0.7-0.3c-0.2-0.2-0.3-0.4-0.3-0.7c0-0.3,0-0.6,0-0.9c0-1.8-0.2-3.5-0.7-5.2c-0.1-0.3,0-0.5,0.1-0.8
		c0.1-0.2,0.4-0.4,0.6-0.4c0.2,0,0.3-0.1,0.4-0.1l0.6-0.1c1.2-0.3,2.4-0.6,3.5-0.8c0.3-0.1,0.6-0.2,0.9-0.2c0.4-0.1,0.8-0.2,1.3-0.3
		l0.3-0.1c0.2,0,0.4-0.1,0.5-0.1l0.2,0c0.1,0,0.2,0,0.3-0.1c0,0,0-0.1,0-0.2l0-0.2c0-0.6-0.3-1.2-0.6-1.5c0-0.1-0.1-0.1-0.1-0.1
		c-0.1,0-0.3,0.1-0.4,0.2c-0.1,0-0.2,0.1-0.4,0.2c-1.1,0.4-2.1,0.9-3.2,1.3l-1.3,0.6c-0.8,0.3-1.5,0.7-2.3,1c-0.2,0.1-0.5,0.1-0.8,0
		c-0.2-0.1-0.4-0.3-0.5-0.5c-0.8-1.9-1.8-3.7-3.1-5.3c-0.2-0.2-0.2-0.5-0.2-0.7c0-0.3,0.2-0.5,0.4-0.7l1-0.7
		c0.9-0.7,1.8-1.4,2.7-2.1c0.3-0.2,0.5-0.4,0.8-0.6c0.3-0.3,0.7-0.5,1-0.8l0.3-0.2c0.1-0.1,0.3-0.2,0.4-0.3l0.2-0.1
		c0.1,0,0.1-0.1,0.2-0.2c0-0.1-0.1-0.1-0.1-0.2l-0.1-0.2c-0.3-0.5-0.8-0.9-1.2-1.2c-0.1,0-0.1-0.1-0.1-0.1c-0.1,0.1-0.2,0.2-0.3,0.3
		c-0.1,0.1-0.2,0.2-0.3,0.3c-0.8,0.8-1.6,1.7-2.4,2.5l-1.3,1.4c-0.5,0.5-0.9,1-1.4,1.5c-0.2,0.2-0.4,0.3-0.7,0.3
		c-0.3,0-0.5-0.1-0.7-0.3c-1.5-1.4-3.1-2.6-5-3.6c-0.2-0.1-0.4-0.3-0.5-0.6c-0.1-0.3,0-0.5,0.1-0.8l0.6-1c0.5-1,1.1-2,1.7-3
		c0.2-0.3,0.3-0.6,0.5-0.9c0.2-0.4,0.4-0.8,0.6-1.1l0.2-0.3C44.8,6,44.9,5.9,45,5.7l0.1-0.2c0-0.1,0.1-0.1,0.1-0.2
		c-0.1,0-0.1-0.1-0.2-0.1L44.9,5c-0.5-0.4-1.1-0.5-1.5-0.6c-0.1,0-0.1,0-0.2,0c0,0.1-0.1,0.3-0.1,0.4C43,5,43,5.1,42.9,5.2
		c-0.4,1.1-0.8,2.2-1.1,3.3l-0.4,1.3c-0.3,0.8-0.5,1.6-0.8,2.4c-0.1,0.2-0.3,0.4-0.5,0.6c-0.2,0.1-0.5,0.1-0.8,0
		c-1.9-0.7-3.9-1.1-6-1.3c-0.3,0-0.5-0.1-0.7-0.3c-0.2-0.2-0.3-0.5-0.2-0.7l0.1-0.8c0.1-1.3,0.2-2.5,0.3-3.8c0-0.3,0.1-0.6,0.1-1
		c0-0.4,0-0.9,0.1-1.3l0-0.4c0-0.2,0.1-0.3,0.1-0.5l0-0.2c0-0.1,0-0.2,0-0.2c-0.1,0-0.1,0-0.2,0l-0.2,0c-0.5-0.1-1.1-0.1-1.6,0.1
		c-0.1,0-0.1,0-0.2,0c0,0.1,0,0.3,0,0.4c0,0.1,0,0.3,0,0.4c0.1,1.1,0.2,2.3,0.3,3.4l0.2,1.7c0.1,0.8,0.1,1.5,0.2,2.3
		c0,0.3-0.1,0.5-0.2,0.7c-0.2,0.2-0.4,0.3-0.7,0.3c-2.1,0.1-4.1,0.5-6,1.3c-0.3,0.1-0.5,0.1-0.8,0c-0.2-0.1-0.4-0.3-0.5-0.6L23.1,11
		c-0.4-1.1-0.8-2.2-1.1-3.3c-0.1-0.3-0.2-0.6-0.3-0.9c-0.1-0.4-0.3-0.8-0.4-1.2l-0.1-0.3C21.1,5.2,21,5,21,4.8l-0.1-0.2
		c0-0.1-0.1-0.2-0.1-0.2c-0.1,0-0.1,0-0.2,0.1l-0.2,0c-0.6,0.1-1.1,0.5-1.5,0.7c-0.1,0-0.1,0.1-0.1,0.1c0,0.1,0.1,0.3,0.2,0.4
		c0.1,0.1,0.1,0.2,0.2,0.4c0.5,1,1.1,2,1.6,3l0.8,1.5c0.4,0.6,0.7,1.3,1.1,2c0.1,0.2,0.1,0.5,0.1,0.8c-0.1,0.2-0.3,0.4-0.5,0.6
		c-1.8,1-3.5,2.2-4.9,3.6c-0.2,0.2-0.4,0.3-0.7,0.3c-0.3,0-0.5-0.1-0.7-0.3c-0.1-0.1-0.2-0.2-0.3-0.3l-0.6-0.6
		c-0.8-0.8-1.5-1.6-2.3-2.5c-0.2-0.2-0.4-0.5-0.7-0.7c-0.3-0.3-0.6-0.6-0.9-1c-0.1-0.1-0.2-0.2-0.2-0.3c-0.1-0.1-0.2-0.3-0.3-0.4
		l-0.2-0.2c0-0.1-0.1-0.1-0.2-0.2c0,0-0.1,0.1-0.2,0.1l-0.2,0.1c-0.5,0.3-0.9,0.9-1,1.3C9,13,9,13,9,13c0.1,0.1,0.2,0.2,0.3,0.3
		c0.1,0.1,0.2,0.1,0.3,0.2c0.9,0.7,1.8,1.4,2.8,2.1l1.2,0.9c0.6,0.5,1.3,0.9,1.9,1.4c0.2,0.1,0.3,0.4,0.4,0.6c0,0.3,0,0.5-0.2,0.7
		c-1.3,1.6-2.3,3.4-3.1,5.3c-0.1,0.2-0.3,0.4-0.5,0.5c-0.2,0.1-0.5,0.1-0.8,0l-1.1-0.4c-1.1-0.5-2.1-0.9-3.2-1.4
		c-0.3-0.1-0.6-0.3-0.9-0.4c-0.4-0.2-0.8-0.3-1.2-0.5c-0.1-0.1-0.2-0.1-0.3-0.1c-0.2-0.1-0.3-0.2-0.5-0.2L4,22.1
		C3.9,22,3.8,22,3.8,22c0,0-0.1,0.1-0.1,0.2l-0.1,0.2c-0.3,0.5-0.4,1.1-0.4,1.6c0,0.1,0,0.1,0,0.2c0.1,0,0.3,0.1,0.4,0.1
		c0.1,0,0.3,0.1,0.4,0.1c1.1,0.3,2.2,0.5,3.4,0.8l1.4,0.3c0.8,0.2,1.6,0.4,2.4,0.6c0.3,0.1,0.5,0.2,0.6,0.4c0.1,0.2,0.2,0.5,0.1,0.7
		c-0.4,1.7-0.7,3.4-0.7,5.2c0,0.3,0,0.6,0,0.9c0,0.3-0.1,0.5-0.3,0.7c-0.2,0.2-0.4,0.3-0.7,0.3l-1.2,0c-1.1,0-2.3,0-3.4,0.1
		c-0.3,0-0.6,0-1,0c-0.4,0-0.7,0-1.1,0H3.3c-0.1,0-0.2,0-0.4,0c-0.1,0-0.2,0-0.4,0l-0.4,0c-0.1,0-0.2,0-0.2,0c0,0.1,0,0.1,0,0.2
		l0,0.2C1.9,35.4,2,36,2.2,36.4c0,0.1,0.1,0.1,0.1,0.1c0.1,0,0.3,0,0.4-0.1c0.1,0,0.3,0,0.4-0.1c1.1-0.2,2.2-0.4,3.4-0.6l1.8-0.4
		c0.7-0.1,1.4-0.3,2.1-0.4c0.3,0,0.5,0,0.7,0.2c0.2,0.1,0.4,0.4,0.4,0.6c0.3,2,1,4,1.9,5.8c0.1,0.2,0.1,0.5,0,0.8
		c-0.1,0.2-0.3,0.5-0.5,0.6l-1,0.5c-1.1,0.5-2.1,1-3.2,1.5c-0.3,0.1-0.6,0.3-0.9,0.4c-0.4,0.2-0.8,0.4-1.1,0.5L6.3,46
		C6.2,46,6,46.1,5.9,46.2l-0.2,0.1c-0.1,0-0.2,0.1-0.2,0.1c0,0.1,0,0.1,0.1,0.2l0.1,0.2c0.1,0.5,0.4,1,0.9,1.4c0,0,0.1,0.1,0.1,0.1
		c0.1-0.1,0.2-0.2,0.4-0.2c0.1-0.1,0.2-0.1,0.3-0.2c0.9-0.6,1.9-1.3,2.8-1.9l1.2-0.9c0.7-0.5,1.4-1,2-1.4c0.2-0.1,0.5-0.2,0.7-0.1
		c0.3,0,0.5,0.2,0.6,0.4c1.1,1.7,2.5,3.2,4.1,4.5c0.2,0.2,0.3,0.4,0.4,0.7c0,0.3-0.1,0.5-0.2,0.7l-0.8,0.9c-0.8,0.9-1.5,1.8-2.3,2.6
		c-0.2,0.2-0.4,0.5-0.6,0.7c-0.3,0.3-0.5,0.7-0.8,1c-0.1,0.1-0.2,0.2-0.2,0.3c-0.1,0.1-0.2,0.2-0.4,0.4l-0.1,0.2
		c-0.1,0.1-0.1,0.1-0.2,0.2c0,0.1,0.1,0.1,0.1,0.2l0.1,0.1c0.4,0.5,1,0.8,1.4,0.9c0.1,0,0.1,0,0.1,0c0.1-0.1,0.2-0.3,0.2-0.4
		c0.1-0.1,0.1-0.2,0.2-0.3c0.6-1,1.2-1.9,1.8-2.9l0.7-1.3c0.4-0.7,0.9-1.4,1.3-2.1c0.1-0.2,0.4-0.4,0.6-0.4c0.3-0.1,0.5,0,0.7,0.1
		c1.7,1.1,3.6,1.9,5.6,2.5c0.3,0.1,0.5,0.2,0.6,0.5c0.1,0.2,0.1,0.5,0.1,0.8C27,53.7,27,53.9,27,54l-0.2,0.7c-0.3,1.1-0.7,2.2-1,3.4
		c-0.1,0.3-0.2,0.6-0.3,0.9c-0.1,0.4-0.2,0.8-0.4,1.2L25,60.5c-0.1,0.2-0.1,0.3-0.2,0.5l-0.1,0.2c0,0.1-0.1,0.2-0.1,0.2
		c0,0,0.1,0.1,0.2,0.1l0.2,0.1c0.4,0.2,1,0.3,1.6,0.3c0.1,0,0.1,0,0.2,0c0-0.1,0-0.3,0.1-0.4c0-0.1,0-0.3,0.1-0.4
		c0.2-1.2,0.3-2.4,0.4-3.5l0.1-1.3c0.1-0.9,0.2-1.7,0.3-2.5c0.1-0.5,0.6-0.9,1.1-0.8c2,0.3,4.1,0.3,6.1,0c0.3,0,0.5,0,0.7,0.2
		c0.2,0.2,0.3,0.4,0.4,0.7c0,0.1,0,0.3,0,0.4l0.1,0.8c0.1,1.1,0.3,2.2,0.4,3.4c0,0.3,0.1,0.6,0.1,1c0.1,0.4,0.1,0.8,0.2,1.3
		c0,0.1,0,0.2,0,0.4c0,0.2,0,0.3,0,0.5l0,0.2c0,0.1,0,0.2,0,0.2h0c0.1,0,0.1,0,0.2,0l0.3,0c0.5,0,1-0.1,1.5-0.4
		c0.1,0,0.1-0.1,0.1-0.1c0-0.1-0.1-0.3-0.1-0.4c0-0.1-0.1-0.3-0.1-0.4c-0.3-1.1-0.7-2.2-1-3.3L37.7,56c-0.3-0.8-0.5-1.6-0.7-2.4
		c-0.1-0.3,0-0.5,0.1-0.7c0.1-0.2,0.3-0.4,0.6-0.5c2-0.5,3.9-1.4,5.6-2.5c0.2-0.2,0.5-0.2,0.8-0.1c0.3,0.1,0.5,0.2,0.6,0.5l0.6,1
		c0.6,1,1.2,2,1.8,3c0.2,0.3,0.4,0.6,0.5,0.8c0.2,0.4,0.4,0.7,0.6,1.1l0.2,0.3c0.1,0.1,0.2,0.3,0.3,0.5l0.1,0.2
		c0,0.1,0.1,0.1,0.1,0.2c0,0,0.1-0.1,0.2-0.1l0.2-0.1c0.6-0.2,1-0.7,1.3-1c0-0.1,0.1-0.1,0.1-0.1c-0.1-0.1-0.2-0.2-0.3-0.3
		c-0.1-0.1-0.2-0.2-0.3-0.3c-0.8-0.9-1.5-1.8-2.3-2.7l-1.1-1.2c-0.5-0.6-1-1.1-1.5-1.7c-0.2-0.2-0.3-0.4-0.2-0.7
		c0-0.3,0.1-0.5,0.3-0.7c1.6-1.3,3-2.8,4.1-4.6c0.1-0.2,0.4-0.4,0.6-0.4c0.3,0,0.5,0,0.7,0.2l0.7,0.5c1,0.7,2.1,1.4,3.1,2.2
		c0.3,0.2,0.5,0.4,0.8,0.6c0.4,0.2,0.7,0.5,1,0.7l0.3,0.2c0.1,0.1,0.3,0.2,0.4,0.3l0.2,0.1c0.1,0,0.1,0.1,0.2,0.1
		c0,0,0.1-0.1,0.2-0.2l0.1-0.1c0.4-0.3,0.6-0.9,0.8-1.5c0-0.1,0-0.1,0-0.2c-0.1,0-0.3-0.1-0.4-0.2c-0.1,0-0.2-0.1-0.4-0.2
		c-1-0.5-2.1-1-3.1-1.5l-1.6-0.7c-0.7-0.3-1.4-0.6-2-0.9c-0.2-0.1-0.4-0.3-0.5-0.6c-0.1-0.3-0.1-0.5,0-0.8c0.9-1.8,1.6-3.8,1.9-5.8
		c0-0.3,0.2-0.5,0.4-0.6c0.2-0.1,0.5-0.2,0.8-0.1c0.1,0,0.3,0.1,0.4,0.1l0.8,0.1c1.1,0.2,2.3,0.4,3.4,0.7c0.3,0.1,0.6,0.1,0.9,0.2
		c0.4,0.1,0.9,0.1,1.3,0.2c0.1,0,0.2,0,0.4,0.1c0.2,0,0.3,0.1,0.5,0.1l0.2,0c0.1,0,0.1,0,0.2,0c0-0.1,0.1-0.1,0.1-0.2l0.1-0.2
		C62.1,35.6,62.1,34.9,62,34.5z M21.8,18.3c1.9,0,3.5,1.6,3.5,3.5s-1.6,3.5-3.5,3.5c-1.9,0-3.5-1.6-3.5-3.5S19.9,18.3,21.8,18.3z
		 M15.2,32.5c0-1.9,1.6-3.5,3.5-3.5c1.9,0,3.5,1.6,3.5,3.5c0,1.9-1.6,3.5-3.5,3.5C16.8,36,15.2,34.5,15.2,32.5z M22,45.7
		c-1.9,0-3.5-1.6-3.5-3.5c0-1.9,1.6-3.5,3.5-3.5c1.9,0,3.5,1.6,3.5,3.5C25.5,44.2,23.9,45.7,22,45.7z M32.1,48.8
		c-1.9,0-3.5-1.6-3.5-3.5c0-1.9,1.6-3.5,3.5-3.5c1.9,0,3.5,1.6,3.5,3.5C35.6,47.3,34,48.8,32.1,48.8z M28.5,32
		c0-1.9,1.6-3.5,3.5-3.5c1.9,0,3.5,1.6,3.5,3.5c0,1.9-1.6,3.5-3.5,3.5C30.1,35.5,28.5,33.9,28.5,32z M32.1,22.1
		c-1.9,0-3.5-1.6-3.5-3.5c0-1.9,1.6-3.5,3.5-3.5c1.9,0,3.5,1.6,3.5,3.5C35.6,20.6,34,22.1,32.1,22.1z M42.2,18.3
		c1.9,0,3.5,1.6,3.5,3.5s-1.6,3.5-3.5,3.5c-1.9,0-3.5-1.6-3.5-3.5S40.2,18.3,42.2,18.3z M42,45.7c-1.9,0-3.5-1.6-3.5-3.5
		c0-1.9,1.6-3.5,3.5-3.5c1.9,0,3.5,1.6,3.5,3.5C45.5,44.2,43.9,45.7,42,45.7z M45.3,36c-1.9,0-3.5-1.6-3.5-3.5
		c0-1.9,1.6-3.5,3.5-3.5c1.9,0,3.5,1.6,3.5,3.5C48.8,34.5,47.2,36,45.3,36z"/><path fill="#3ba580" d="M62,34.5c0-0.1,0-0.1,0-0.2c-0.2,0-0.6,0-0.8,0c-1.2-0.1-2.3-0.1-3.5-0.1l-1.4,0c-0.8,0-1.7,0-2.5-0.1
		c-0.3,0-0.5-0.1-0.7-0.3c-0.2-0.2-0.3-0.4-0.3-0.7c0-0.3,0-0.6,0-0.9c0-1.8-0.2-3.5-0.7-5.2c-0.1-0.3,0-0.5,0.1-0.8
		c0.1-0.2,0.4-0.4,0.6-0.4c0.2,0,0.3-0.1,0.4-0.1l0.6-0.1c1.2-0.3,2.4-0.6,3.5-0.8c0.3-0.1,0.6-0.2,0.9-0.2c0.4-0.1,0.8-0.2,1.3-0.3
		l0.3-0.1c0.2,0,0.4-0.1,0.5-0.1l0.2,0c0.1,0,0.2,0,0.3-0.1c0,0,0-0.1,0-0.2l0-0.2c0-0.6-0.3-1.2-0.6-1.5c0-0.1-0.1-0.1-0.1-0.1
		c-0.1,0-0.3,0.1-0.4,0.2c-0.1,0-0.2,0.1-0.4,0.2c-1.1,0.4-2.1,0.9-3.2,1.3l-1.3,0.6c-0.8,0.3-1.5,0.7-2.3,1c-0.2,0.1-0.5,0.1-0.8,0
		c-0.2-0.1-0.4-0.3-0.5-0.5c-0.8-1.9-1.8-3.7-3.1-5.3c-0.2-0.2-0.2-0.5-0.2-0.7c0-0.3,0.2-0.5,0.4-0.7l1-0.7
		c0.9-0.7,1.8-1.4,2.7-2.1c0.3-0.2,0.5-0.4,0.8-0.6c0.3-0.3,0.7-0.5,1-0.8l0.3-0.2c0.1-0.1,0.3-0.2,0.4-0.3l0.2-0.1
		c0.1,0,0.1-0.1,0.2-0.2c0-0.1-0.1-0.1-0.1-0.2l-0.1-0.2c-0.3-0.5-0.8-0.9-1.2-1.2c-0.1,0-0.1-0.1-0.1-0.1c-0.1,0.1-0.2,0.2-0.3,0.3
		c-0.1,0.1-0.2,0.2-0.3,0.3c-0.8,0.8-1.6,1.7-2.4,2.5l-1.3,1.4c-0.5,0.5-0.9,1-1.4,1.5c-0.2,0.2-0.4,0.3-0.7,0.3
		c-0.3,0-0.5-0.1-0.7-0.3c-1.5-1.4-3.1-2.6-5-3.6c-0.2-0.1-0.4-0.3-0.5-0.6c-0.1-0.3,0-0.5,0.1-0.8l0.6-1c0.5-1,1.1-2,1.7-3
		c0.2-0.3,0.3-0.6,0.5-0.9c0.2-0.4,0.4-0.8,0.6-1.1l0.2-0.3C44.8,6,44.9,5.9,45,5.7l0.1-0.2c0-0.1,0.1-0.1,0.1-0.2
		c-0.1,0-0.1-0.1-0.2-0.1L44.9,5c-0.5-0.4-1.1-0.5-1.5-0.6c-0.1,0-0.1,0-0.2,0c0,0.1-0.1,0.3-0.1,0.4C43,5,43,5.1,42.9,5.2
		c-0.4,1.1-0.8,2.2-1.1,3.3l-0.4,1.3c-0.3,0.8-0.5,1.6-0.8,2.4c-0.1,0.2-0.3,0.4-0.5,0.6c-0.2,0.1-0.5,0.1-0.8,0
		c-1.9-0.7-3.9-1.1-6-1.3c-0.3,0-0.5-0.1-0.7-0.3c-0.2-0.2-0.3-0.5-0.2-0.7l0.1-0.8c0.1-1.3,0.2-2.5,0.3-3.8c0-0.3,0.1-0.6,0.1-1
		c0-0.4,0-0.9,0.1-1.3l0-0.4c0-0.2,0.1-0.3,0.1-0.5l0-0.2c0-0.1,0-0.2,0-0.2c-0.1,0-0.1,0-0.2,0l-0.2,0c-0.5-0.1-1.1-0.1-1.6,0.1
		c-0.1,0-0.1,0-0.2,0c0,0.1,0,0.3,0,0.4c0,0.1,0,0.3,0,0.4c0.1,1.1,0.2,2.3,0.3,3.4l0.2,1.7c0.1,0.8,0.1,1.5,0.2,2.3
		c0,0.3-0.1,0.5-0.2,0.7c-0.2,0.2-0.4,0.3-0.7,0.3c-2.1,0.1-4.1,0.5-6,1.3c-0.3,0.1-0.5,0.1-0.8,0c-0.2-0.1-0.4-0.3-0.5-0.6L23.1,11
		c-0.4-1.1-0.8-2.2-1.1-3.3c-0.1-0.3-0.2-0.6-0.3-0.9c-0.1-0.4-0.3-0.8-0.4-1.2l-0.1-0.3C21.1,5.2,21,5,21,4.8l-0.1-0.2
		c0-0.1-0.1-0.2-0.1-0.2c-0.1,0-0.1,0-0.2,0.1l-0.2,0c-0.6,0.1-1.1,0.5-1.5,0.7c-0.1,0-0.1,0.1-0.1,0.1c0,0.1,0.1,0.3,0.2,0.4
		c0.1,0.1,0.1,0.2,0.2,0.4c0.5,1,1.1,2,1.6,3l0.8,1.5c0.4,0.6,0.7,1.3,1.1,2c0.1,0.2,0.1,0.5,0.1,0.8c-0.1,0.2-0.3,0.4-0.5,0.6
		c-1.8,1-3.5,2.2-4.9,3.6c-0.2,0.2-0.4,0.3-0.7,0.3c-0.3,0-0.5-0.1-0.7-0.3c-0.1-0.1-0.2-0.2-0.3-0.3l-0.6-0.6
		c-0.8-0.8-1.5-1.6-2.3-2.5c-0.2-0.2-0.4-0.5-0.7-0.7c-0.3-0.3-0.6-0.6-0.9-1c-0.1-0.1-0.2-0.2-0.2-0.3c-0.1-0.1-0.2-0.3-0.3-0.4
		l-0.2-0.2c0-0.1-0.1-0.1-0.2-0.2c0,0-0.1,0.1-0.2,0.1l-0.2,0.1c-0.5,0.3-0.9,0.9-1,1.3C9,13,9,13,9,13c0.1,0.1,0.2,0.2,0.3,0.3
		c0.1,0.1,0.2,0.1,0.3,0.2c0.9,0.7,1.8,1.4,2.8,2.1l1.2,0.9c0.6,0.5,1.3,0.9,1.9,1.4c0.2,0.1,0.3,0.4,0.4,0.6c0,0.3,0,0.5-0.2,0.7
		c-1.3,1.6-2.3,3.4-3.1,5.3c-0.1,0.2-0.3,0.4-0.5,0.5c-0.2,0.1-0.5,0.1-0.8,0l-1.1-0.4c-1.1-0.5-2.1-0.9-3.2-1.4
		c-0.3-0.1-0.6-0.3-0.9-0.4c-0.4-0.2-0.8-0.3-1.2-0.5c-0.1-0.1-0.2-0.1-0.3-0.1c-0.2-0.1-0.3-0.2-0.5-0.2L4,22.1
		C3.9,22,3.8,22,3.8,22c0,0-0.1,0.1-0.1,0.2l-0.1,0.2c-0.3,0.5-0.4,1.1-0.4,1.6c0,0.1,0,0.1,0,0.2c0.1,0,0.3,0.1,0.4,0.1
		c0.1,0,0.3,0.1,0.4,0.1c1.1,0.3,2.2,0.5,3.4,0.8l1.4,0.3c0.8,0.2,1.6,0.4,2.4,0.6c0.3,0.1,0.5,0.2,0.6,0.4c0.1,0.2,0.2,0.5,0.1,0.7
		c-0.4,1.7-0.7,3.4-0.7,5.2c0,0.3,0,0.6,0,0.9c0,0.3-0.1,0.5-0.3,0.7c-0.2,0.2-0.4,0.3-0.7,0.3l-1.2,0c-1.1,0-2.3,0-3.4,0.1
		c-0.3,0-0.6,0-1,0c-0.4,0-0.7,0-1.1,0H3.3c-0.1,0-0.2,0-0.4,0c-0.1,0-0.2,0-0.4,0l-0.4,0c-0.1,0-0.2,0-0.2,0c0,0.1,0,0.1,0,0.2
		l0,0.2C1.9,35.4,2,36,2.2,36.4c0,0.1,0.1,0.1,0.1,0.1c0.1,0,0.3,0,0.4-0.1c0.1,0,0.3,0,0.4-0.1c1.1-0.2,2.2-0.4,3.4-0.6l1.8-0.4
		c0.7-0.1,1.4-0.3,2.1-0.4c0.3,0,0.5,0,0.7,0.2c0.2,0.1,0.4,0.4,0.4,0.6c0.3,2,1,4,1.9,5.8c0.1,0.2,0.1,0.5,0,0.8
		c-0.1,0.2-0.3,0.5-0.5,0.6l-1,0.5c-1.1,0.5-2.1,1-3.2,1.5c-0.3,0.1-0.6,0.3-0.9,0.4c-0.4,0.2-0.8,0.4-1.1,0.5L6.3,46
		C6.2,46,6,46.1,5.9,46.2l-0.2,0.1c-0.1,0-0.2,0.1-0.2,0.1c0,0.1,0,0.1,0.1,0.2l0.1,0.2c0.1,0.5,0.4,1,0.9,1.4c0,0,0.1,0.1,0.1,0.1
		c0.1-0.1,0.2-0.2,0.4-0.2c0.1-0.1,0.2-0.1,0.3-0.2c0.9-0.6,1.9-1.3,2.8-1.9l1.2-0.9c0.7-0.5,1.4-1,2-1.4c0.2-0.1,0.5-0.2,0.7-0.1
		c0.3,0,0.5,0.2,0.6,0.4c1.1,1.7,2.5,3.2,4.1,4.5c0.2,0.2,0.3,0.4,0.4,0.7c0,0.3-0.1,0.5-0.2,0.7l-0.8,0.9c-0.8,0.9-1.5,1.8-2.3,2.6
		c-0.2,0.2-0.4,0.5-0.6,0.7c-0.3,0.3-0.5,0.7-0.8,1c-0.1,0.1-0.2,0.2-0.2,0.3c-0.1,0.1-0.2,0.2-0.4,0.4l-0.1,0.2
		c-0.1,0.1-0.1,0.1-0.2,0.2c0,0.1,0.1,0.1,0.1,0.2l0.1,0.1c0.4,0.5,1,0.8,1.4,0.9c0.1,0,0.1,0,0.1,0c0.1-0.1,0.2-0.3,0.2-0.4
		c0.1-0.1,0.1-0.2,0.2-0.3c0.6-1,1.2-1.9,1.8-2.9l0.7-1.3c0.4-0.7,0.9-1.4,1.3-2.1c0.1-0.2,0.4-0.4,0.6-0.4c0.3-0.1,0.5,0,0.7,0.1
		c1.7,1.1,3.6,1.9,5.6,2.5c0.3,0.1,0.5,0.2,0.6,0.5c0.1,0.2,0.1,0.5,0.1,0.8C27,53.7,27,53.9,27,54l-0.2,0.7c-0.3,1.1-0.7,2.2-1,3.4
		c-0.1,0.3-0.2,0.6-0.3,0.9c-0.1,0.4-0.2,0.8-0.4,1.2L25,60.5c-0.1,0.2-0.1,0.3-0.2,0.5l-0.1,0.2c0,0.1-0.1,0.2-0.1,0.2
		c0,0,0.1,0.1,0.2,0.1l0.2,0.1c0.4,0.2,1,0.3,1.6,0.3c0.1,0,0.1,0,0.2,0c0-0.1,0-0.3,0.1-0.4c0-0.1,0-0.3,0.1-0.4
		c0.2-1.2,0.3-2.4,0.4-3.5l0.1-1.3c0.1-0.9,0.2-1.7,0.3-2.5c0.1-0.5,0.6-0.9,1.1-0.8c2,0.3,4.1,0.3,6.1,0c0.3,0,0.5,0,0.7,0.2
		c0.2,0.2,0.3,0.4,0.4,0.7c0,0.1,0,0.3,0,0.4l0.1,0.8c0.1,1.1,0.3,2.2,0.4,3.4c0,0.3,0.1,0.6,0.1,1c0.1,0.4,0.1,0.8,0.2,1.3
		c0,0.1,0,0.2,0,0.4c0,0.2,0,0.3,0,0.5l0,0.2c0,0.1,0,0.2,0,0.2h0c0.1,0,0.1,0,0.2,0l0.3,0c0.5,0,1-0.1,1.5-0.4
		c0.1,0,0.1-0.1,0.1-0.1c0-0.1-0.1-0.3-0.1-0.4c0-0.1-0.1-0.3-0.1-0.4c-0.3-1.1-0.7-2.2-1-3.3L37.7,56c-0.3-0.8-0.5-1.6-0.7-2.4
		c-0.1-0.3,0-0.5,0.1-0.7c0.1-0.2,0.3-0.4,0.6-0.5c2-0.5,3.9-1.4,5.6-2.5c0.2-0.2,0.5-0.2,0.8-0.1c0.3,0.1,0.5,0.2,0.6,0.5l0.6,1
		c0.6,1,1.2,2,1.8,3c0.2,0.3,0.4,0.6,0.5,0.8c0.2,0.4,0.4,0.7,0.6,1.1l0.2,0.3c0.1,0.1,0.2,0.3,0.3,0.5l0.1,0.2
		c0,0.1,0.1,0.1,0.1,0.2c0,0,0.1-0.1,0.2-0.1l0.2-0.1c0.6-0.2,1-0.7,1.3-1c0-0.1,0.1-0.1,0.1-0.1c-0.1-0.1-0.2-0.2-0.3-0.3
		c-0.1-0.1-0.2-0.2-0.3-0.3c-0.8-0.9-1.5-1.8-2.3-2.7l-1.1-1.2c-0.5-0.6-1-1.1-1.5-1.7c-0.2-0.2-0.3-0.4-0.2-0.7
		c0-0.3,0.1-0.5,0.3-0.7c1.6-1.3,3-2.8,4.1-4.6c0.1-0.2,0.4-0.4,0.6-0.4c0.3,0,0.5,0,0.7,0.2l0.7,0.5c1,0.7,2.1,1.4,3.1,2.2
		c0.3,0.2,0.5,0.4,0.8,0.6c0.4,0.2,0.7,0.5,1,0.7l0.3,0.2c0.1,0.1,0.3,0.2,0.4,0.3l0.2,0.1c0.1,0,0.1,0.1,0.2,0.1
		c0,0,0.1-0.1,0.2-0.2l0.1-0.1c0.4-0.3,0.6-0.9,0.8-1.5c0-0.1,0-0.1,0-0.2c-0.1,0-0.3-0.1-0.4-0.2c-0.1,0-0.2-0.1-0.4-0.2
		c-1-0.5-2.1-1-3.1-1.5l-1.6-0.7c-0.7-0.3-1.4-0.6-2-0.9c-0.2-0.1-0.4-0.3-0.5-0.6c-0.1-0.3-0.1-0.5,0-0.8c0.9-1.8,1.6-3.8,1.9-5.8
		c0-0.3,0.2-0.5,0.4-0.6c0.2-0.1,0.5-0.2,0.8-0.1c0.1,0,0.3,0.1,0.4,0.1l0.8,0.1c1.1,0.2,2.3,0.4,3.4,0.7c0.3,0.1,0.6,0.1,0.9,0.2
		c0.4,0.1,0.9,0.1,1.3,0.2c0.1,0,0.2,0,0.4,0.1c0.2,0,0.3,0.1,0.5,0.1l0.2,0c0.1,0,0.1,0,0.2,0c0-0.1,0.1-0.1,0.1-0.2l0.1-0.2
		C62.1,35.6,62.1,34.9,62,34.5z M51.6,35.6c-0.3,1.9-0.9,3.8-1.8,5.5c-0.2,0.4-0.3,0.9-0.2,1.3c-0.4,0.1-0.8,0.4-1.1,0.8
		c-1.1,1.6-2.4,3.1-3.9,4.3c-0.3,0.3-0.6,0.7-0.7,1.1c-0.1,0-0.2,0-0.3,0c-0.4,0-0.8,0.1-1.1,0.3c-1.6,1.1-3.4,1.9-5.3,2.4
		c-0.4,0.1-0.8,0.4-1.1,0.8c-0.3-0.2-0.7-0.3-1-0.3c-0.1,0-0.2,0-0.3,0C34,52.1,33,52.1,32,52.1c-1,0-2-0.1-2.9-0.2
		c-0.1,0-0.2,0-0.3,0c-0.4,0-0.7,0.1-1,0.3c-0.3-0.4-0.6-0.7-1.1-0.8c-1.9-0.5-3.7-1.3-5.3-2.4c-0.3-0.2-0.7-0.3-1.1-0.3
		c-0.1,0-0.2,0-0.3,0c-0.1-0.5-0.3-0.9-0.7-1.1c-1.5-1.3-2.8-2.7-3.9-4.3c-0.3-0.4-0.6-0.7-1.1-0.8c0.1-0.4,0.1-0.9-0.2-1.3
		c-0.9-1.8-1.5-3.6-1.8-5.5c-0.1-0.4-0.3-0.9-0.7-1.2c0.3-0.4,0.4-0.8,0.4-1.3c0-0.3,0-0.6,0-0.9c0-1.7,0.2-3.3,0.6-4.9
		c0.1-0.4,0.1-0.9-0.1-1.3c0.4-0.2,0.7-0.6,0.9-1c0.7-1.9,1.7-3.6,2.9-5.1c0.3-0.4,0.4-0.8,0.4-1.3c0.5,0,0.9-0.2,1.2-0.5
		c1.4-1.4,3-2.5,4.7-3.5c0.4-0.2,0.7-0.6,0.9-1c0.2,0.1,0.4,0.1,0.6,0.1c0.2,0,0.5,0,0.7-0.1c1.8-0.7,3.8-1.1,5.7-1.2
		c0.5,0,0.9-0.2,1.2-0.5c0.3,0.3,0.8,0.5,1.2,0.5c2,0.1,3.9,0.5,5.7,1.2c0.2,0.1,0.5,0.1,0.7,0.1c0.2,0,0.4,0,0.6-0.1
		c0.2,0.4,0.5,0.8,0.9,1c1.7,0.9,3.3,2.1,4.7,3.4c0.4,0.3,0.8,0.5,1.2,0.6c0,0.4,0.1,0.9,0.4,1.3c1.2,1.6,2.2,3.3,2.9,5.1
		c0.2,0.4,0.5,0.8,0.9,1c-0.2,0.4-0.2,0.9-0.1,1.4c0.4,1.6,0.6,3.3,0.6,4.9c0,0.3,0,0.5,0,0.8c0,0.5,0.1,0.9,0.4,1.3
		C51.9,34.7,51.6,35.1,51.6,35.6z"/><path fill="#2a2f63" d="M32,28.5c-1.9,0-3.5,1.6-3.5,3.5c0,1.9,1.6,3.5,3.5,3.5c1.9,0,3.5-1.6,3.5-3.5C35.5,30.1,33.9,28.5,32,28.5z
		 M32,33.6c-0.9,0-1.6-0.7-1.6-1.5c0-0.9,0.7-1.6,1.6-1.6c0.9,0,1.5,0.7,1.5,1.6C33.5,32.9,32.8,33.6,32,33.6z"/><path fill="#ffdc7c" d="M33.5,32c0,0.9-0.7,1.5-1.5,1.5c-0.9,0-1.6-0.7-1.6-1.5c0-0.9,0.7-1.6,1.6-1.6C32.8,30.5,33.5,31.1,33.5,32z"/><path fill="#2a2f63" d="M32.1,15.2c-1.9,0-3.5,1.6-3.5,3.5c0,1.9,1.6,3.5,3.5,3.5c1.9,0,3.5-1.6,3.5-3.5C35.6,16.7,34,15.2,32.1,15.2z
		 M32.1,20.2c-0.8,0-1.5-0.7-1.5-1.5c0-0.9,0.7-1.5,1.5-1.5c0.9,0,1.6,0.7,1.6,1.5C33.6,19.5,32.9,20.2,32.1,20.2z"/><path fill="#ffdc7c" d="M33.6,18.7c0,0.9-0.7,1.5-1.6,1.5c-0.8,0-1.5-0.7-1.5-1.5c0-0.9,0.7-1.5,1.5-1.5
		C32.9,17.1,33.6,17.8,33.6,18.7z"/><path fill="#2a2f63" d="M32.1,41.9c-1.9,0-3.5,1.6-3.5,3.5c0,1.9,1.6,3.5,3.5,3.5c1.9,0,3.5-1.6,3.5-3.5C35.6,43.4,34,41.9,32.1,41.9z
		 M32.1,46.9c-0.8,0-1.5-0.7-1.5-1.5c0-0.9,0.7-1.5,1.5-1.5c0.9,0,1.6,0.7,1.6,1.5C33.6,46.2,32.9,46.9,32.1,46.9z"/><path fill="#ffdc7c" d="M33.6,45.3c0,0.9-0.7,1.5-1.6,1.5c-0.8,0-1.5-0.7-1.5-1.5c0-0.9,0.7-1.5,1.5-1.5
		C32.9,43.8,33.6,44.5,33.6,45.3z"/><path fill="#2a2f63" d="M42,38.8c-1.9,0-3.5,1.6-3.5,3.5c0,1.9,1.6,3.5,3.5,3.5c1.9,0,3.5-1.6,3.5-3.5C45.5,40.3,43.9,38.8,42,38.8z
		 M42,43.8c-0.9,0-1.5-0.7-1.5-1.5c0-0.9,0.7-1.6,1.5-1.6c0.9,0,1.6,0.7,1.6,1.6C43.6,43.1,42.9,43.8,42,43.8z"/><path fill="#ffdc7c" d="M43.6,42.3c0,0.9-0.7,1.5-1.6,1.5c-0.9,0-1.5-0.7-1.5-1.5c0-0.9,0.7-1.6,1.5-1.6
		C42.9,40.7,43.6,41.4,43.6,42.3z"/><path fill="#2a2f63" d="M22,38.8c-1.9,0-3.5,1.6-3.5,3.5c0,1.9,1.6,3.5,3.5,3.5c1.9,0,3.5-1.6,3.5-3.5C25.5,40.3,23.9,38.8,22,38.8z
		 M22,43.8c-0.9,0-1.5-0.7-1.5-1.5c0-0.9,0.7-1.6,1.5-1.6c0.9,0,1.6,0.7,1.6,1.6C23.5,43.1,22.8,43.8,22,43.8z"/><path fill="#ffdc7c" d="M23.5,42.3c0,0.9-0.7,1.5-1.6,1.5c-0.9,0-1.5-0.7-1.5-1.5c0-0.9,0.7-1.6,1.5-1.6
		C22.8,40.7,23.5,41.4,23.5,42.3z"/><path fill="#2a2f63" d="M45.3,29c-1.9,0-3.5,1.6-3.5,3.5c0,1.9,1.6,3.5,3.5,3.5c1.9,0,3.5-1.6,3.5-3.5C48.8,30.6,47.2,29,45.3,29z
		 M45.3,34.1c-0.9,0-1.5-0.7-1.5-1.5c0-0.9,0.7-1.6,1.5-1.6c0.9,0,1.6,0.7,1.6,1.6C46.8,33.4,46.2,34.1,45.3,34.1z"/><path fill="#ffdc7c" d="M46.8,32.5c0,0.8-0.7,1.5-1.6,1.5c-0.9,0-1.5-0.7-1.5-1.5c0-0.9,0.7-1.6,1.5-1.6C46.2,31,46.8,31.7,46.8,32.5z
		"/><path fill="#2a2f63" d="M18.7,29c-1.9,0-3.5,1.6-3.5,3.5c0,1.9,1.6,3.5,3.5,3.5c1.9,0,3.5-1.6,3.5-3.5C22.2,30.6,20.6,29,18.7,29z
		 M18.7,34.1c-0.9,0-1.5-0.7-1.5-1.5c0-0.9,0.7-1.6,1.5-1.6c0.9,0,1.6,0.7,1.6,1.6C20.2,33.4,19.5,34.1,18.7,34.1z"/><path fill="#ffdc7c" d="M20.2,32.5c0,0.8-0.7,1.5-1.6,1.5c-0.9,0-1.5-0.7-1.5-1.5c0-0.9,0.7-1.6,1.5-1.6C19.5,31,20.2,31.7,20.2,32.5z
		"/><path fill="#2a2f63" d="M42.2,18.3c-1.9,0-3.5,1.6-3.5,3.5s1.6,3.5,3.5,3.5c1.9,0,3.5-1.6,3.5-3.5S44.1,18.3,42.2,18.3z M42.2,23.3
		c-0.9,0-1.5-0.7-1.5-1.5c0-0.9,0.7-1.6,1.5-1.6c0.9,0,1.5,0.7,1.5,1.6C43.7,22.6,43,23.3,42.2,23.3z"/><path fill="#ffdc7c" d="M43.7,21.8c0,0.9-0.7,1.5-1.5,1.5c-0.9,0-1.5-0.7-1.5-1.5c0-0.9,0.7-1.6,1.5-1.6C43,20.2,43.7,20.9,43.7,21.8z
		"/><path fill="#2a2f63" d="M21.8,18.3c-1.9,0-3.5,1.6-3.5,3.5s1.6,3.5,3.5,3.5c1.9,0,3.5-1.6,3.5-3.5S23.8,18.3,21.8,18.3z M21.8,23.3
		c-0.9,0-1.5-0.7-1.5-1.5c0-0.9,0.7-1.6,1.5-1.6c0.9,0,1.6,0.7,1.6,1.6C23.4,22.6,22.7,23.3,21.8,23.3z"/><path fill="#ffdc7c" d="M23.4,21.8c0,0.9-0.7,1.5-1.6,1.5c-0.9,0-1.5-0.7-1.5-1.5c0-0.9,0.7-1.6,1.5-1.6
		C22.7,20.2,23.4,20.9,23.4,21.8z"/></svg>